<svg width="14" height="13" viewBox="0 0 14 13" fill="none" xmlns="http://www.w3.org/2000/svg">
<path d="M7 12.5C4.84375 12.5 2.875 11.375 1.79688 9.5C0.71875 7.64844 0.71875 5.375 1.79688 3.5C2.875 1.64844 4.84375 0.5 7 0.5C9.13281 0.5 11.1016 1.64844 12.1797 3.5C13.2578 5.375 13.2578 7.64844 12.1797 9.5C11.1016 11.375 9.13281 12.5 7 12.5ZM6.0625 8.375C5.73438 8.375 5.5 8.63281 5.5 8.9375C5.5 9.26562 5.73438 9.5 6.0625 9.5H7.9375C8.24219 9.5 8.5 9.26562 8.5 8.9375C8.5 8.63281 8.24219 8.375 7.9375 8.375H7.75V6.3125C7.75 6.00781 7.49219 5.75 7.1875 5.75H6.0625C5.73438 5.75 5.5 6.00781 5.5 6.3125C5.5 6.64062 5.73438 6.875 6.0625 6.875H6.625V8.375H6.0625ZM7 3.5C6.57812 3.5 6.25 3.85156 6.25 4.25C6.25 4.67188 6.57812 5 7 5C7.39844 5 7.75 4.67188 7.75 4.25C7.75 3.85156 7.39844 3.5 7 3.5Z" fill="#dc3545"/>
</svg>
